<svg xmlns="http://www.w3.org/2000/svg" viewBox="0 0 23 23"><path d="M1 1h7v7h-7zM10 1h1v2h1v-2h1v1h1v4h-1v-2h-3v1h2v1h-2v2h1v-1h1v2h-1v1h1v-1h1v1h2v1h1v1h-1v1h-1v2h-1v-2h-1v-1h1v-1h-3v-2h-1v-6h1zM15 1h7v7h-7zM2 2v5h5v-5zM16 2v5h5v-5zM3 3h3v3h-3zM17 3h3v3h-3zM12 6h1v1h-1zM13 7h1v1h-1zM1 9h1v1h-1zM3 9h5v1h-2v2h-1v-2h-1v1h-2v-1h1zM15 9h5v1h2v1h-1v1h1v1h-4v-1h2v-1h-1v-1h-2v1h-1v-1h-1zM8 10h1v2h-2v-1h1zM4 12h1v1h-1zM6 12h1v1h-1zM9 12h2v1h-2zM16 12h1v2h1v1h-1v1h1v-1h2v-1h1v2h1v2h-1v-1h-3v2h-2v-1h1v-1h-1v-3h-1v-1h1zM2 13h1v1h-1zM7 13h2v1h-2zM9 14h1v1h-1zM1 15h7v7h-7zM10 15h3v1h-1v1h-1v2h-1v1h-1v-4h1zM14 15h1v2h1v1h-2zM2 16v5h5v-5zM3 17h3v3h-3zM12 17h1v1h-1zM13 18h1v2h-1zM15 19h1v1h-1zM11 20h2v1h1v1h-2v-1h-1zM14 20h1v1h-1zM18 20h2v1h-2zM9 21h2v1h-2zM15 21h2v1h-2zM20 21h1v1h-1z"/></svg>